<svg xmlns="http://www.w3.org/2000/svg" width="20" height="20" viewBox="0 0 21.84 22">
  <g>
    <path class="cls-1" fill="none" stroke="#F84E4E" stroke-width="2" stroke-linecap="round" stroke-linejoin="round" d="M10.43,1.01C4.96,1.28.74,5.94,1.01,11.41c.07,1.4.43,2.77,1.07,4.01l-1.05,5.11c-.04.21.09.41.3.46.06.01.11.01.17,0l5.01-1.19c4.91,2.44,10.86.44,13.3-4.47,2.44-4.91.44-10.86-4.47-13.3-1.52-.76-3.21-1.11-4.9-1.03Z"/>
    <path class="cls-2" fill="none" stroke="#F84E4E" stroke-width="1.5px" stroke-linecap="round" stroke-linejoin="round" d="M16.28,13.32l-2.15-.62c-.28-.08-.59,0-.79.21l-.53.53c-.22.23-.56.3-.85.18-1.02-.41-3.15-2.31-3.7-3.26-.16-.27-.13-.62.06-.87l.46-.59c.18-.23.22-.54.1-.81l-.9-2.04c-.18-.4-.65-.59-1.06-.41-.07.03-.14.07-.19.12-.6.51-1.31,1.28-1.4,2.13-.15,1.5.49,3.4,2.93,5.68,2.82,2.63,5.08,2.98,6.55,2.62.83-.2,1.5-1.01,1.92-1.67.24-.37.13-.87-.25-1.11-.06-.04-.13-.07-.21-.09Z"/>
  </g>
</svg>